<svg xmlns="http://www.w3.org/2000/svg" width="32" height="32" viewBox="0 0 32 32">
  <defs>
    <linearGradient id="bg" x1="0%" y1="0%" x2="100%" y2="100%">
      <stop offset="0%" style="stop-color:#667eea"/>
      <stop offset="100%" style="stop-color:#764ba2"/>
    </linearGradient>
  </defs>
  <!-- 배경 -->
  <rect width="32" height="32" fill="url(#bg)" rx="3"/>
  
  <!-- 메인 문서 -->
  <rect x="7" y="4" width="16" height="21" fill="white" rx="1"/>
  
  <!-- 문서 접힌 모서리 -->
  <polygon points="19,4 23,8 23,4" fill="#e0e6ff"/>
  
  <!-- AI 텍스트 라인들 -->
  <line x1="10" y1="9" x2="18" y2="9" stroke="#667eea" stroke-width="1.2" stroke-linecap="round"/>
  <line x1="10" y1="12" x2="16" y2="12" stroke="#667eea" stroke-width="1.2" stroke-linecap="round"/>
  <line x1="10" y1="15" x2="19" y2="15" stroke="#667eea" stroke-width="1.2" stroke-linecap="round"/>
  <line x1="10" y1="18" x2="17" y2="18" stroke="#667eea" stroke-width="1.2" stroke-linecap="round"/>
  
  <!-- AI 스파크 아이콘 -->
  <g transform="translate(18,20)">
    <polygon points="0,-3 1,-1 3,0 1,1 0,3 -1,1 -3,0 -1,-1" fill="#ffd700"/>
  </g>
  
  <!-- 추가 작은 스파크들 -->
  <circle cx="25" cy="7" r="0.8" fill="#ffd700" opacity="0.8"/>
  <circle cx="26" cy="25" r="0.6" fill="#ffd700" opacity="0.6"/>
</svg>